<svg id="svg" version="1.1" xmlns="http://www.w3.org/2000/svg" xmlns:xlink="http://www.w3.org/1999/xlink" width="400" height="396.13152804642164" viewBox="0, 0, 400,396.13152804642164"><g id="svgg"><path id="path0" d="M176.015 95.858 C 166.076 100.460,166.331 98.765,166.424 159.550 C 166.479 194.930,166.746 210.698,167.259 208.772 C 168.218 205.171,172.454 200.194,175.990 198.517 L 178.723 197.219 178.723 153.690 C 178.723 120.084,178.944 109.860,179.691 108.844 C 180.588 107.624,184.657 107.543,235.977 107.729 L 291.296 107.930 291.495 163.056 L 291.693 218.182 281.218 218.182 C 270.059 218.182,266.774 218.929,263.189 222.281 C 259.926 225.331,259.585 226.765,259.188 239.072 L 258.801 251.064 224.653 251.265 L 190.505 251.467 189.973 255.907 C 189.680 258.350,189.254 261.132,189.027 262.089 L 188.614 263.830 227.576 263.813 C 263.888 263.797,266.748 263.698,269.632 262.359 C 274.629 260.040,302.754 231.025,303.917 226.990 C 305.638 221.024,305.155 107.934,303.393 104.055 C 301.621 100.155,297.248 96.267,293.445 95.211 C 287.548 93.573,179.666 94.168,176.015 95.858 M206.390 117.108 C 185.593 124.870,190.699 158.575,212.676 158.603 C 225.402 158.619,237.152 143.275,226.719 140.264 C 222.226 138.967,220.898 139.471,219.481 143.013 C 214.849 154.589,202.056 146.218,204.994 133.534 C 206.455 127.229,214.223 123.927,217.312 128.297 C 221.587 134.344,221.497 134.294,225.633 132.994 C 229.357 131.824,229.400 131.774,229.337 128.625 C 229.163 119.810,216.362 113.385,206.390 117.108 M241.167 117.311 C 239.920 118.558,240.937 122.103,247.275 138.587 C 255.098 158.937,254.389 157.834,259.642 157.834 C 264.602 157.834,263.388 159.787,271.901 138.104 C 279.752 118.108,279.832 117.311,274.018 116.979 C 268.538 116.665,268.500 116.712,263.795 129.617 C 261.549 135.778,259.612 140.721,259.491 140.600 C 259.370 140.479,257.403 135.168,255.120 128.797 L 250.968 117.215 246.342 116.989 C 243.798 116.864,241.469 117.009,241.167 117.311 M194.775 167.879 C 190.796 171.010,191.482 176.444,196.102 178.374 C 199.995 180.001,271.086 180.042,274.969 178.420 C 279.578 176.494,279.938 169.528,275.549 167.179 C 272.277 165.428,197.063 166.080,194.775 167.879 M195.094 190.794 C 191.561 193.269,191.507 199.307,195.002 201.177 C 198.211 202.894,274.938 202.125,276.837 200.357 C 279.509 197.867,279.364 193.864,276.510 191.296 L 274.575 189.555 235.719 189.555 C 201.344 189.555,196.659 189.698,195.094 190.794 M177.848 205.423 C 175.177 206.875,175.560 205.718,168.661 233.167 C 162.578 257.366,162.089 258.591,158.640 258.228 C 151.365 257.461,149.527 246.234,155.706 240.305 C 159.452 236.711,159.929 235.835,161.841 229.046 C 164.312 220.269,165.269 221.471,154.622 219.974 C 139.496 217.848,133.103 219.649,131.664 226.441 C 128.904 239.470,128.216 313.463,130.830 316.076 C 132.072 317.316,157.158 324.151,161.095 324.321 C 165.200 324.499,164.257 326.774,176.710 286.654 C 181.600 270.899,189.555 224.456,189.555 211.664 C 189.555 205.835,183.263 202.481,177.848 205.423 M283.946 231.159 C 283.946 231.488,281.161 234.527,277.756 237.911 L 271.567 244.064 271.567 237.764 C 271.567 233.448,271.871 231.341,272.534 231.073 C 274.114 230.436,283.946 230.510,283.946 231.159 M127.600 325.666 C 121.385 331.880,124.681 334.991,141.768 339.040 L 155.490 342.292 157.622 340.700 C 165.249 335.006,161.622 330.873,145.393 326.764 C 129.939 322.851,130.387 322.879,127.600 325.666 " stroke="none" fill="#000000" fill-rule="evenodd"></path></g></svg>